<?xml version="1.0" encoding="utf-8"?>
<!-- Generator: Adobe Illustrator 23.0.2, SVG Export Plug-In . SVG Version: 6.00 Build 0)  -->
<svg version="1.1" xmlns="http://www.w3.org/2000/svg" xmlns:xlink="http://www.w3.org/1999/xlink" x="0px" y="0px"
	 viewBox="0 0 100 100" style="enable-background:new 0 0 100 100;" xml:space="preserve">
<style type="text/css">
	.st0{fill:#A1A1A1;}
</style>
<g id="Layer_1">
	<path class="st0" d="M60.96,72.28c-0.06-0.64-0.1-1.66-0.13-2.72c9.66-0.99,16.43-3.3,16.43-6c-0.03,0-0.02-0.11-0.02-0.16
		c-7.22-6.5,6.26-52.73-18.83-51.79c-1.58-1.33-4.33-2.52-8.29-2.52c-33.98,2.57-18.96,46.22-26.7,54.46c0,0-0.01,0-0.02,0
		c0,0,0,0.01,0,0.01c0,0,0,0,0,0s0,0,0,0c0.03,2.64,6.58,4.92,15.95,5.93c-0.03,0.64-0.08,1.44-0.2,2.78
		C35.26,82.75,8.99,79.81,7.78,100h84.45C91.01,79.81,64.86,82.75,60.96,72.28z"/>
</g>
<g id="Layer_2">
</g>
</svg>
