<?xml version="1.0" encoding="utf-8"?>
<!-- Generator: Adobe Illustrator 23.0.2, SVG Export Plug-In . SVG Version: 6.00 Build 0)  -->
<svg version="1.1" xmlns="http://www.w3.org/2000/svg" xmlns:xlink="http://www.w3.org/1999/xlink" x="0px" y="0px"
	 viewBox="0 0 100 100" style="enable-background:new 0 0 100 100;" xml:space="preserve">
<style type="text/css">
	.st0{fill:#A1A1A1;}
</style>
<g id="Layer_1">
	<path class="st0" d="M60.9,72.43c-0.32-3.56-0.2-6.05-0.2-9.31c1.61-0.85,4.51-6.24,4.99-10.81c1.27-0.1,3.27-1.34,3.86-6.23
		c0.32-2.62-0.94-4.1-1.7-4.56c2.06-6.21,6.35-25.42-7.93-27.4c-1.47-2.58-5.23-3.89-10.13-3.89
		c-19.57,0.36-21.93,14.78-17.64,31.29c-0.76,0.46-2.02,1.94-1.7,4.56c0.59,4.89,2.59,6.13,3.86,6.23
		c0.49,4.56,3.49,9.96,5.11,10.81c0,3.26,0.12,5.74-0.2,9.31C35.34,82.84,9.21,79.92,8,100h84C90.8,79.92,64.78,82.84,60.9,72.43z"
		/>
</g>
<g id="Layer_2">
</g>
</svg>
